<?xml version="1.0" encoding="UTF-8"?> <svg xmlns="http://www.w3.org/2000/svg" xmlns:xlink="http://www.w3.org/1999/xlink" version="1.1" id="Capa_1" x="0px" y="0px" viewBox="0 0 50 50" style="enable-background:new 0 0 50 50;" xml:space="preserve"> <style type="text/css"> .st0{fill:#F15B6A;} .st1{fill:#EADF23;} </style> <g> <g> <g> <path class="st0" d="M7.2,25.9c0.4,0.2,0.6,0.5,0.8,0.8c0.2,0.3,0.3,0.7,0.3,1c0,0.3-0.1,0.7-0.2,1.1c-0.2,0.4-0.4,0.7-0.7,1.1 c-0.3,0.3-0.8,0.6-1.3,0.8C5.6,30.9,5,31,4.2,31c-0.6,0-1.2-0.1-1.7-0.3c-0.5-0.2-0.9-0.4-1.2-0.7c-0.3-0.3-0.6-0.6-0.8-1 c-0.2-0.4-0.3-0.7-0.4-1l1.6-0.3c0,0.1,0,0.2,0.1,0.4c0.1,0.2,0.2,0.4,0.4,0.5C2.5,28.9,2.7,29,3,29.2c0.3,0.1,0.7,0.2,1.2,0.2 c0.5,0,0.9-0.1,1.2-0.2c0.3-0.1,0.6-0.3,0.7-0.5c0.2-0.2,0.3-0.4,0.4-0.6c0.1-0.2,0.1-0.3,0.1-0.4c0-0.2-0.2-0.4-0.6-0.6 c-0.4-0.2-1-0.3-1.9-0.3c-0.6,0-1.2,0-1.6-0.1c-0.5-0.1-0.8-0.2-1.1-0.4c-0.3-0.2-0.5-0.3-0.7-0.5c-0.2-0.2-0.3-0.4-0.4-0.6 c-0.1-0.2-0.1-0.4-0.2-0.5c0-0.2,0-0.3,0-0.4c0-0.3,0.1-0.7,0.2-1.1c0.2-0.4,0.4-0.7,0.7-1.1c0.3-0.3,0.8-0.6,1.3-0.8 c0.5-0.2,1.1-0.3,1.8-0.3c0.6,0,1.2,0.1,1.7,0.3c0.5,0.2,0.9,0.4,1.2,0.7C7.5,22.4,7.8,22.7,8,23c0.2,0.3,0.3,0.7,0.4,1l-1.6,0.3 c0-0.1,0-0.2-0.1-0.4c-0.1-0.2-0.2-0.4-0.4-0.5S5.8,23.1,5.5,23c-0.3-0.1-0.7-0.2-1.2-0.2c-0.5,0-0.9,0.1-1.2,0.2 c-0.3,0.1-0.6,0.3-0.7,0.5C2.1,23.7,2,23.8,1.9,24c-0.1,0.2-0.1,0.3-0.1,0.4c0,0.1,0,0.2,0.1,0.3c0.1,0.1,0.2,0.2,0.4,0.3 c0.2,0.1,0.4,0.1,0.8,0.2c0.3,0.1,0.7,0.1,1.1,0.1C5.5,25.2,6.5,25.4,7.2,25.9z"></path> <path class="st0" d="M9.7,21.1h1.7V31H9.7V21.1z"></path> <path class="st0" d="M20.1,22.8h-5.7v3.7h3.8l-0.3,1.7h-3.5v1.2h5.7V31h-7.4v-1.7v-1.2v-1.7v-3.7v-0.8v-0.8h7.4V22.8z"></path> <path class="st0" d="M29.1,24.8c0,0.4-0.1,0.7-0.2,1.1c-0.1,0.3-0.3,0.7-0.5,1c-0.2,0.3-0.4,0.6-0.7,0.8 c-0.3,0.2-0.6,0.4-0.9,0.6L29,31h-2.1l-1.9-2.5h-1.3l-0.3-1.7h2c0.3,0,0.5-0.1,0.8-0.2c0.2-0.1,0.5-0.2,0.6-0.4 c0.2-0.2,0.3-0.4,0.4-0.6c0.1-0.2,0.2-0.5,0.2-0.8s-0.1-0.5-0.2-0.8c-0.1-0.2-0.3-0.5-0.4-0.6c-0.2-0.2-0.4-0.3-0.6-0.4 c-0.2-0.1-0.5-0.2-0.8-0.2h-2.3V31h-1.7v-8.2v-0.8v-0.8h4c0.5,0,1,0.1,1.4,0.3c0.4,0.2,0.8,0.5,1.2,0.8c0.3,0.3,0.6,0.7,0.8,1.2 C29,23.8,29.1,24.3,29.1,24.8z"></path> <path class="st0" d="M38.1,24.8c0,0.4-0.1,0.7-0.2,1.1c-0.1,0.3-0.3,0.7-0.5,1c-0.2,0.3-0.4,0.6-0.7,0.8 c-0.3,0.2-0.6,0.4-0.9,0.6L38,31h-2.1l-1.9-2.5h-1.3l-0.3-1.7h2c0.3,0,0.5-0.1,0.8-0.2c0.2-0.1,0.5-0.2,0.6-0.4 c0.2-0.2,0.3-0.4,0.4-0.6c0.1-0.2,0.2-0.5,0.2-0.8s-0.1-0.5-0.2-0.8c-0.1-0.2-0.3-0.5-0.4-0.6c-0.2-0.2-0.4-0.3-0.6-0.4 c-0.2-0.1-0.5-0.2-0.8-0.2h-2.3V31h-1.7v-8.2v-0.8v-0.8h4c0.5,0,1,0.1,1.4,0.3c0.4,0.2,0.8,0.5,1.2,0.8c0.3,0.3,0.6,0.7,0.8,1.2 C38,23.8,38.1,24.3,38.1,24.8z"></path> <path class="st0" d="M44.4,21.1l4.9,9.9h-9.9L44.4,21.1z M44.4,24.5l-2.5,5h5L44.4,24.5z"></path> </g> <g> <polygon class="st0" points="22,9.4 28.2,3.2 34,9 27.8,15.2 28.5,15.9 29.2,15.2 30.9,15.2 30.9,13.5 31,13.4 32.7,13.4 32.7,11.6 33,11.4 34.7,11.4 34.7,9.7 35.4,9 28.2,1.8 21.3,8.7 "></polygon> <polygon class="st0" points="21.3,16.2 28.1,9.4 27.5,8.7 21.3,14.9 15.5,9 21.6,2.8 21,2.2 20.4,2.8 18.6,2.8 18.6,4.5 18.5,4.6 16.8,4.6 16.8,6.4 16.6,6.6 14.8,6.6 14.8,8.3 14.1,9 "></polygon> </g> <g> <path class="st0" d="M24.5,40.4H23v0.9H24l-0.1,0.4H23V42h1.4v0.4h-1.8V42v-0.3v-0.4v-0.9v-0.2V40h1.8V40.4z"></path> <path class="st0" d="M26.8,42.1c-0.1,0.1-0.2,0.2-0.4,0.3c-0.1,0.1-0.3,0.1-0.5,0.1c-0.2,0-0.3,0-0.5-0.1 c-0.1-0.1-0.3-0.1-0.4-0.3c-0.1-0.1-0.2-0.2-0.3-0.4c-0.1-0.1-0.1-0.3-0.1-0.5s0-0.3,0.1-0.5c0.1-0.1,0.1-0.3,0.3-0.4 c0.1-0.1,0.2-0.2,0.4-0.3C25.7,40,25.8,40,26,40c0.2,0,0.3,0,0.5,0.1c0.1,0.1,0.3,0.1,0.4,0.3l-0.3,0.3c-0.1-0.1-0.2-0.1-0.3-0.2 c-0.1,0-0.2-0.1-0.3-0.1c-0.1,0-0.2,0-0.3,0.1c-0.1,0-0.2,0.1-0.3,0.2c-0.1,0.1-0.1,0.2-0.2,0.3c0,0.1-0.1,0.2-0.1,0.3 c0,0.1,0,0.2,0.1,0.3c0,0.1,0.1,0.2,0.2,0.3c0.1,0.1,0.2,0.1,0.3,0.2c0.1,0,0.2,0.1,0.3,0.1c0.1,0,0.2,0,0.3-0.1 c0.1,0,0.2-0.1,0.3-0.2L26.8,42.1z M26.2,41.2c0,0.1,0,0.1-0.1,0.1c0,0-0.1,0.1-0.1,0.1c-0.1,0-0.1,0-0.1-0.1 c0,0-0.1-0.1-0.1-0.1c0-0.1,0-0.1,0.1-0.1c0,0,0.1-0.1,0.1-0.1c0.1,0,0.1,0,0.1,0.1C26.2,41.1,26.2,41.2,26.2,41.2z"></path> </g> </g> <g> <g> <polygon class="st1" points="28.2,5.4 26.9,6.6 29.3,9 26.9,11.4 28.2,12.7 31.8,9 "></polygon> <polygon class="st1" points="22.6,6.6 21.3,5.4 17.6,9 21.3,12.7 22.6,11.4 20.2,9 "></polygon> <rect x="23.8" y="8.1" transform="matrix(0.7071 -0.7071 0.7071 0.7071 0.8661 20.138)" class="st1" width="1.8" height="1.8"></rect> <g> <rect x="37.2" y="8.1" transform="matrix(0.7071 -0.7071 0.7071 0.7071 4.7899 29.611)" class="st1" width="1.8" height="1.8"></rect> <rect x="10.4" y="8.1" transform="matrix(0.7071 -0.7071 0.7071 0.7071 -3.0578 10.6651)" class="st1" width="1.8" height="1.8"></rect> </g> </g> <g> <g> <path class="st1" d="M39.2,32.7L24.7,47.2L10.2,32.7c0,0-0.1,0-0.1,0l14.6,14.6l0,0l14.6-14.6C39.3,32.7,39.3,32.7,39.2,32.7z"></path> </g> <polygon class="st1" points="29.1,42.1 24.7,46.4 20.4,42.2 20.4,42.1 19.5,42.1 24.7,47.2 29.5,42.5 29.9,42.1 "></polygon> </g> </g> </g> </svg> 